/* XPM */
static char *result[] = {
/* columns rows colors chars-per-pixel */
"64 64 134 2 ",
"   c black",
".  c #291F02",
"X  c #342802",
"o  c #3B291D",
"O  c #2D1225",
"+  c #381F25",
"@  c #2F2120",
"#  c #3C2525",
"$  c #3D2822",
"%  c #3D2B29",
"&  c #473908",
"*  c #493B08",
"=  c #48341E",
"-  c #4E3A1E",
";  c #5B391B",
":  c #422E20",
">  c #41242C",
",  c #412C2C",
"<  c #4B2D2E",
"1  c #473222",
"2  c #4B3424",
"3  c #4E332C",
"4  c #503726",
"5  c #563B27",
"6  c #52362D",
"7  c #543A2B",
"8  c #5A3E2D",
"9  c #4C2B33",
"0  c #512F34",
"q  c #543533",
"w  c #553B33",
"e  c #5B3D33",
"r  c #62431E",
"t  c #6A471A",
"y  c #6D551E",
"u  c #7D5417",
"i  c #765F10",
"p  c #7B611B",
"a  c #5E412E",
"s  c #5E4133",
"d  c #61442D",
"f  c #68472F",
"g  c #6B4B2F",
"h  c #704C2F",
"j  c #7A5322",
"k  c #775B25",
"l  c #74522F",
"z  c #7C542C",
"x  c #7A5C2B",
"c  c #644532",
"v  c #684733",
"b  c #674832",
"n  c #694A34",
"m  c #704F36",
"M  c #6F5030",
"N  c #725231",
"B  c #7B5A30",
"V  c #845A15",
"C  c #8B5D17",
"Z  c #886D13",
"A  c #81641E",
"S  c #8C6F1D",
"D  c #996713",
"F  c #9F6B12",
"G  c #96651B",
"H  c #8E711D",
"J  c #9C7E16",
"K  c #94751F",
"L  c #BB7E0D",
"P  c #A9731F",
"I  c #B47A16",
"U  c #B57B1C",
"Y  c #B97D1C",
"T  c #895E29",
"R  c #8A6D21",
"E  c #84642C",
"W  c #8D6C2A",
"Q  c #936227",
"!  c #936428",
"~  c #916F2D",
"^  c #8E7020",
"/  c #927225",
"(  c #9E7C25",
")  c #9F7B2D",
"_  c #A26E25",
"`  c #AB7520",
"'  c #A17628",
"]  c #A27E2B",
"[  c #A08117",
"{  c #A4831D",
"}  c #AE8B1B",
"|  c #B28F1C",
" . c #B3911B",
".. c #BB971D",
"X. c #BD981D",
"o. c #A68323",
"O. c #A88623",
"+. c #AA852B",
"@. c #B48F2C",
"#. c #B49121",
"$. c #BA9425",
"%. c #BE9923",
"&. c #B7912C",
"*. c #BB9529",
"=. c #C2840E",
"-. c #C8870B",
";. c #CD8B0E",
":. c #D28E0D",
">. c #D6910C",
",. c #D8920A",
"<. c #C08217",
"1. c #CB8913",
"2. c #D28F11",
"3. c #C39D1D",
"4. c #C7A11E",
"5. c #CBA31F",
"6. c #CFA81E",
"7. c #D5AD1F",
"8. c #DBA91D",
"9. c #E2AD1B",
"0. c #C39C24",
"q. c #C29A2B",
"w. c #CCA422",
"e. c #D5AC22",
"r. c #D8AE25",
"t. c #DDB322",
"y. c #E1B623",
"u. c #E6BA24",
"i. c #E9BD24",
"p. c #EDC023",
"a. c #F3C426",
"s. c #F7C827",
"d. c #F9C926",
"f. c None",
/* pixels */
"f.f.f.f.f.f.f.f.f.f.f.f.f.f.f.f.f.f.f.f.f.f.f.f.f.f.f.f.f.f.f.f.f.f.f.f.f.f.f.f.f.f.f.f.f.f.f.f.f.f.f.f.f.f.f.f.f.f.f.f.f.f.f.f.",
"f.f.f.f.f.f.f.f.f.f.f.f.f.f.f.f.f.f.f.f.f.f.f.f.f.f.f.f.f.f.f.f.f.f.f.f.f.f.f.f.f.f.f.f.f.f.f.f.f.f.f.f.f.f.f.f.f.f.f.f.f.f.f.f.",
"f.f.f.f.f.f.f.f.f.f.f.f.f.f.f.f.f.f.f.f.f.f.f.f.f.f.f.f.f.f.f.f.f.f.f.f.f.f.f.f.f.f.f.f.f.f.f.f.f.f.f.f.f.f.f.f.f.f.f.f.f.f.f.f.",
"f.f.f.f.f.f.f.f.f.f.f.f.f.f.f.f.f.f.f.f.f.f.f.f.f.f.f.f.f.f.f.f.f.f.f.f.f.f.f.f.f.f.f.f.f.f.f.f.f.f.f.f.f.f.f.f.f.f.f.f.f.f.f.f.",
"f.f.f.f.f.f.f.f.f.f.f.f.f.f.f.f.f.f.f.f.f.f.f.f.f.u.u.u.u.u.u.u.u.i.u.u.u.u.u.f.f.f.f.f.f.f.f.f.f.f.f.f.f.f.f.f.f.f.f.f.f.f.f.f.",
"f.f.f.f.f.f.f.f.f.f.f.f.f.f.f.f.f.f.f.f.f.u.u.u.a.a.a.a.p.i.i.i.i.i.i.i.a.a.a.a.u.u.u.f.f.f.f.f.f.f.f.f.f.f.f.f.f.f.f.f.f.f.f.f.",
"f.f.f.f.f.f.f.f.f.f.f.f.f.f.f.f.f.f.u.u.a.s.p.i.u.u.u.u.u.u.u.u.u.i.u.u.u.u.u.u.i.p.a.a.u.y.f.f.f.f.f.f.f.f.f.f.f.f.f.f.f.f.f.f.",
"f.f.f.f.f.f.f.f.f.f.f.f.f.f.f.f.u.i.d.i.u.u.u.u.u.u.u.y.u.u.u.u.u.u.u.u.u.u.u.u.i.u.u.u.i.s.u.y.f.f.f.f.f.f.f.f.f.f.f.f.f.f.f.f.",
"f.f.f.f.f.f.f.f.f.f.f.f.f.f.u.i.d.u.u.u.u.i.u.u.u.u.i.i.u.p.i.p.i.i.i.i.p.u.u.u.u.u.u.u.u.u.u.d.u.t.f.f.f.f.f.f.f.f.f.f.f.f.f.f.",
"f.f.f.f.f.f.f.f.f.f.f.f.u.u.s.u.u.u.u.u.u.u.i.i.u.t.7.w.0.%.$.#.*.%.0.w.e.t.p.p.u.u.u.u.u.u.u.u.u.s.y.f.f.f.f.f.f.f.f.f.f.f.f.f.",
"f.f.f.f.f.f.f.f.f.f.f.u.s.i.u.u.u.u.u.u.i.u.7.%.O.W x n a s 3 # e e e v l E ) *.r.u.p.u.u.u.u.u.u.u.p.a.e.f.f.f.f.f.f.f.f.f.f.f.",
"f.f.f.f.f.f.f.f.f.f.u.a.u.u.u.u.u.u.u.7.%.( x d e e s s s b a 3 s c c c e e q q g ~ *.t.p.i.u.u.u.u.u.u.a.r.f.f.f.f.f.f.f.f.f.f.",
"f.f.f.f.f.f.f.f.f.i.i.u.u.u.u.u.y.e. .W g w s s b b f c b b s 6 c c v v v d v v s w q g +.t.i.u.u.u.u.u.u.a.t.f.f.f.f.f.f.f.f.f.",
"f.f.f.f.f.f.f.f.a.u.i.u.u.i.u.t.%.^ b e c b b c c c c c s b 8 2 c c c c c c c c v b b e 9 n @.y.p.u.u.u.u.u.i.y.f.f.f.f.f.f.f.f.",
"f.f.f.f.f.f.f.a.u.u.u.u.u.y.7.{ l e c v c c c c c c c c b b a 4 c c c c c c c c c c c v n c 9 E w.i.u.u.u.u.u.i.t.f.f.f.f.f.f.f.",
"f.f.f.f.f.f.u.u.i.u.u.u.y.3./ c s v c c c c c c c c c c s b 7 4 c c c c c c c c c c c c d b b q c *.i.u.u.u.u.u.i.e.f.f.f.f.f.f.",
"f.f.f.f.f.i.i.u.u.u.i.t...E e v b c c c c c c c c c c c c c a 2 c c c c c c c c c c c c c c c b c q ] u.i.u.u.u.u.a.4.f.f.f.f.f.",
"f.f.f.f.i.a.u.u.u.i.t...E e d v c c c c c c c c c c c c c c a 3 c c c c c c c c c c c c c c c c v c 9 ) u.u.u.u.u.u.p.X.f.f.f.f.",
"f.f.f.f.d.u.u.u.u.t.X.E e c c c c c c c c c c c c c c c c b a 3 c c c c c c c c c c c c c c c c c c b 9 ] i.u.u.u.u.i.t.f.f.f.f.",
"f.f.f.u.i.u.u.u.u.3./ e v c c c c c c c c c c c c c c c c c 8 2 s c c c c c c c c c c c c c c c c c v b 0 @.i.u.u.u.i.i.3.f.f.f.",
"f.f.i.a.u.u.u.u.6.( s c c c c c c c c c c c c c c c c c c c a 3 c c c c c c c c c c c c c c c c c c c v c w w.i.u.u.u.u.y.f.f.f.",
"f.f.u.i.u.u.u.t. .g c c c c c c c c c c c c c c c c c c c v 8 4 c c c c c c c c c c c c c c c c c c c c b e x y.u.u.u.u.i.3.f.f.",
"f.f.a.u.u.i.u.4.W e b c c c c c c c c c c c c c c c c c c v 8 3 c c c c c c c c c c c c c c c c c c c c v f 9 +.p.u.u.u.i.e.f.f.",
"f.u.a.u.u.i.7.O.c c c c c c c c c c c c c c c c c c c c c c 8 2 c c c c c c c c c c c c c c c c c c c c c v c b r.i.u.u.i.u...f.",
"f.u.i.u.u.u.3.E e v c c c c c c c c c c c c c c c c c c v b d 7 b b b s c c c c c c c c c c c c c c c c c c b q +.i.u.u.u.i.3.f.",
"f.a.u.u.i.r.} v v c c c c c c c c c c c c c c c c c c f v s 3 % s s c b c c c c c c c c c c c c c c c c c c v s N t.u.u.u.i.e.f.",
"u.s.u.u.u.7./ e c c c c c c c c c c c c c c c c c c c w e l z j z M a w c b c c c c c c c c c c c c c c c c c b q q.i.u.u.i.t.f.",
"u.p.u.u.u.3.k e c c c c c c c c c c c c c c c c b s s ! U 1.2.:.2.1.U ! s c c c c c c c c c c c c c c c c c c n q ) u.u.u.i.y...",
"u.i.u.i.y. .d v c c c c c c c c c c c c c c c v s g U >.>.-.L L =.:.,.:.U b s c c c c c c c c c c c c c c c c c c B y.u.u.i.y.X.",
"u.i.u.u.t.{ 8 v d c c c c c c c c c c c c c c c h  .>.=.D t : o 4 j I :.>.I s c c c c c c c c c c c c c c c c c c n r.u.y.u.u...",
"u.u.u.i.t./ 6 b v c c c c c c c c c c c c c v s P ,.=.V + 3 4 2 d e 3 P :.,.G a v c c c c c c c c c c c c c c c c e w.i.u.u.u...",
"u.u.u.u.e.H 6 v c c c c c c c c c c c c c c s g 1.:.F o 7 n a 7 v b f a <.,.} 3 c c c c c c c c c c c c c c c c c q *.p.y.u.y...",
"u.u.y.p.e.S 3 b c c c c c c c c c c c c c c e T 2.;.u % c c w 3 c c b w / ,.=.r s c c c c c c c c c c c c c c c b 0 &.p.t.u.u...",
"u.u.u.u.7.R 0 b c c c c c c c c c c c c c c s ! ;.2.C , c c 8 2 e c c q _ ,.L ; 8 v c c c c c c c c c c c c c c b 9 &.p.u.u.u...",
"u.u.u.i.7.R 0 b c c c c c c c c c c c c c n q ' 9.9.t.r.r.r.r.r.r.e.r.r.t.u.8.V w b c c c c c c c c c c c c c c b 9 &.p.u.u.u...",
"u.u.u.u.7.R 3 c c c c c c c c c c c c c n s n r.p.u.i.i.i.i.i.i.i.i.i.i.u.u.i.w.7 b c c c c c c c c c c c c c c b 9 &.p.u.u.u...",
"u.p.y.p.7.R 3 n c c c c c c c c c c c c n s N y.u.u.u.u.u.u.u.u.u.u.u.u.u.u.u.w.1 c b c c c c c c c c c c c c c b 9 @.p.u.u.u.X.",
"u.u.y.i.7.R 3 n c c c c c c c c c c c c c s N y.u.u.u.u.u.u.y.u.u.u.u.u.u.u.i.w.$ c c c c c c c c c c c c c c c b 9 @.p.t.u.u...",
"u.u.u.i.e.R 3 n c c c c c c c c c c c c c s N y.i.u.u.u.u.i.p.p.a.u.u.u.u.u.i.e.: c b c c c c c c c c c c c c c n 9 @.p.u.u.u...",
"u.i.y.i.e.R 3 b c c c c c c c c c c c c n s N y.u.u.u.u.u.u.| Z | u.u.u.u.u.i.w.: d c c c c c c c c c c c c c c b 9 @.p.u.u.y...",
"u.u.u.u.r.R 3 n c c c c c c c c c c c c c s M y.u.u.u.u.i.J       J i.u.u.u.i.4.1 c v c c c c c c c c c c c c c b 9 @.p.t.u.u...",
"u.i.u.i.e.R < n c c c c c c c c c c c c c c n r.u.u.i.u.y.&   .   * u.u.u.u.u...1 c c c c c c c c c c c c c c c g 9 &.p.u.u.y...",
"u.u.u.u.e.R 3 v c c c c c c c c c c c c c b 9 @.p.y.u.u.p.}   X   } i.u.u.u.y.H + b c c c c c c c c c c c c c c b 9 &.p.u.u.u.X.",
"u.u.u.i.e.R 9 n c c c c c c c c c c c c c b s N t.i.u.u.u.p.[   [ p.u.u.u.u.%.- 7 v c c c c c c c c c c c c c c b < &.p.u.u.u...",
"u.u.u.u.7.R 3 n c c c c c c c c c c c c c c b q ~ u.i.u.u.i.7.i e.i.u.u.u.4.y $ c c c c c c c c c c c c c c c c b 9 @.p.y.u.u.X.",
"u.u.u.u.7.R 3 n c c c c c c c c c c c c c c b b q W e.p.i.u.u.i.u.u.i.t.X.y @ c c c c c c c c c c c c c c c c c b 9 &.p.u.u.u...",
"u.u.u.p.e.R 3 b c c c c c c c c c c c c c c c c b w f o.w.t.u.u.y.e.X.H = # c c c c c c c c c c c c c c c c c b b 9 @.p.u.u.y.%.",
"u.u.u.u.e.R 3 n c c c c c c c c c c c c c c c c c b s 0 7 k A p A y $ # 8 v v c c c c c c c c c c c c c c c c d n 9 @.p.y.u.u...",
"u.t.u.p.7.R 3 n c c c c c c c c c c c c c c c c c c v n c e % O 9 q s v v c c c c c c c c c c c c c c c c c c c v 9 @.p.t.i.y.%.",
"u.p.t.p.7.R 3 n c c c c c c c c c c c c c c c c c c v s c b c 8 v n v c c c v c c c c c c c c c c c c c c c c v v 9 &.p.y.i.y...",
"u.u.u.p.7.R 3 n c c c c c c c c c c c c c c c c c c c c c c a 4 s c c c c c c c c c c c c c c c c c c c c c c c v 9 @.p.u.u.y.X.",
"u.u.u.u.7.R 9 n c c c c c c c c c c c c c c c c c c c c c c 8 3 c c c c c c c c c c c c c c c c c c c c c c c c n 9 @.p.y.u.u.X.",
"u.p.u.i.r.R 6 n c c c v c c c c v c c s c c c v c c v c c v a 3 c v c c v c c c c v c c c c c c v c c c c c v c b 9 @.p.u.p.t.%.",
"f.a.a.s.y./ q n n n n n n n n m n n n m n n n n m n n n n m s w n n n n n n n n n n n n n n m n n n n n n m n n m 0 q.d.a.i.4.f.",
"f.f.w.w.w.^ 3 n c c c c c c c c c c c v c c c c s v c c s v w q c v c c c c c c c v c c c c c c c c c c c c c c v q ] 7.4...f.f.",
"f.f.f.f.f.f.f.f.f.f.f.f.f.f.f.f.f.f.f.f.f.f.f.f.f.f.f.f.f.f.f.f.f.f.f.f.f.f.f.f.f.f.f.f.f.f.f.f.f.f.f.f.f.f.f.f.f.f.f.f.f.f.f.f.",
"f.f.f.f.f.f.f.f.f.f.f.f.f.f.f.f.f.f.f.f.f.f.f.f.f.f.f.f.f.f.f.f.f.f.f.f.f.f.f.f.f.f.f.f.f.f.f.f.f.f.f.f.f.f.f.f.f.f.f.f.f.f.f.f.",
"f.f.f.f.f.f.f.f.f.f.f.f.f.f.f.f.f.f.f.f.f.f.f.f.f.f.f.f.f.f.f.f.f.f.f.f.f.f.f.f.f.f.f.f.f.f.f.f.f.f.f.f.f.f.f.f.f.f.f.f.f.f.f.f.",
"f.f.f.f.f.f.f.f.f.f.f.f.f.f.f.f.f.f.f.f.f.f.f.f.f.f.f.f.f.f.f.f.f.f.f.f.f.f.f.f.f.f.f.f.f.f.f.f.f.f.f.f.f.f.f.f.f.f.f.f.f.f.f.f.",
"f.f.f.f.f.f.f.f.f.f.f.f.f.f.f.f.f.f.f.f.f.f.f.f.f.f.f.f.f.f.f.f.f.f.f.f.f.f.f.f.f.f.f.f.f.f.f.f.f.f.f.f.f.f.f.f.f.f.f.f.f.f.f.f.",
"f.f.f.f.f.f.f.f.f.f.f.f.f.f.f.f.f.f.f.f.f.f.f.f.f.f.f.f.f.f.f.f.f.f.f.f.f.f.f.f.f.f.f.f.f.f.f.f.f.f.f.f.f.f.f.f.f.f.f.f.f.f.f.f.",
"f.f.f.f.f.f.f.f.f.f.f.f.f.f.f.f.f.f.f.f.f.f.f.f.f.f.f.f.f.f.f.f.f.f.f.f.f.f.f.f.f.f.f.f.f.f.f.f.f.f.f.f.f.f.f.f.f.f.f.f.f.f.f.f.",
"f.f.f.f.f.f.f.f.f.f.f.f.f.f.f.f.f.f.f.f.f.f.f.f.f.f.f.f.f.f.f.f.f.f.f.f.f.f.f.f.f.f.f.f.f.f.f.f.f.f.f.f.f.f.f.f.f.f.f.f.f.f.f.f.",
"f.f.f.f.f.f.f.f.f.f.f.f.f.f.f.f.f.f.f.f.f.f.f.f.f.f.f.f.f.f.f.f.f.f.f.f.f.f.f.f.f.f.f.f.f.f.f.f.f.f.f.f.f.f.f.f.f.f.f.f.f.f.f.f."
};
