/* XPM */
static char *result[] = {
/* columns rows colors chars-per-pixel */
"81 64 183 2 ",
"   c #000000",
".  c #0D0D0D",
"X  c #090100",
"o  c #120501",
"O  c #1B0A00",
"+  c #1E1203",
"@  c #000011",
"#  c #001012",
"$  c #171615",
"%  c #230E00",
"&  c #261001",
"*  c #291201",
"=  c #2E1806",
"-  c #341801",
";  c #381B01",
":  c #442404",
">  c #482705",
",  c #532B03",
"<  c #5D3205",
"1  c #683806",
"2  c #7B4307",
"3  c gray26",
"4  c #494949",
"5  c gray33",
"6  c gray35",
"7  c #6C6C6C",
"8  c #767676",
"9  c #797979",
"0  c #923400",
"q  c #8B4C09",
"w  c #804608",
"e  c #904F0A",
"r  c #9C570C",
"t  c #884E15",
"y  c #89511A",
"u  c #995714",
"i  c #AA5E0E",
"p  c #B85000",
"a  c #A55E19",
"s  c #AE600E",
"d  c #BC680E",
"f  c #B7650E",
"g  c #AC621A",
"h  c #AC6111",
"j  c #BD6911",
"k  c #B9691B",
"l  c #9E5C23",
"z  c #A35F24",
"x  c #A66020",
"c  c #B36826",
"v  c #BD6D29",
"b  c #BC6C22",
"n  c #CD6D00",
"m  c #C06B0F",
"M  c #D36B00",
"N  c #DC6B00",
"B  c #CD7300",
"V  c #CE7902",
"C  c #D47200",
"Z  c #DA7500",
"A  c #D1760C",
"S  c #C46E14",
"D  c #C86F12",
"F  c #C36E1A",
"G  c #CC7213",
"H  c #CC7319",
"J  c #CC7D1D",
"K  c #C77013",
"L  c #D27514",
"P  c #DA7A13",
"I  c #D3771C",
"U  c #D67819",
"Y  c #E57500",
"T  c #E27E14",
"R  c #C16E20",
"E  c #CD7521",
"W  c #C57225",
"Q  c #D57923",
"!  c #D97C22",
"~  c #C97836",
"^  c #FE8600",
"/  c #FF8A00",
"(  c #FF8E0D",
")  c #FE9300",
"_  c #FF910F",
"`  c #E68115",
"'  c #EC8416",
"]  c #ED841A",
"[  c #F18717",
"{  c #F58916",
"}  c #FE8E17",
"|  c #F4891B",
" . c #FF8F18",
".. c #FF9017",
"X. c #FF9219",
"o. c #FF9A1A",
"O. c #E88424",
"+. c #FF8F23",
"@. c #F48F2E",
"#. c #FF9122",
"$. c #FF9927",
"%. c #FF9229",
"&. c #FF992B",
"*. c #FF9730",
"=. c #FF9934",
"-. c #FF9B3C",
";. c #CC8448",
":. c #CD8D53",
">. c #CC915B",
",. c #E29349",
"<. c #FF9C43",
"1. c #F89D49",
"2. c #E7995D",
"3. c #FFA141",
"4. c #CE9161",
"5. c #D49766",
"6. c #CD9670",
"7. c #CD9C73",
"8. c #CB9E7D",
"9. c #CDA27A",
"0. c #FFA465",
"q. c #FFA66B",
"w. c #FFAB6C",
"e. c #FFAF7E",
"r. c #FFB87C",
"t. c #8B8B8B",
"y. c #949393",
"u. c #9A9A9A",
"i. c #A3A3A3",
"p. c #ADACAC",
"a. c #B3B2B2",
"s. c #CEA485",
"d. c #CDA98D",
"f. c #C7A896",
"g. c #CCB199",
"h. c #CEB097",
"j. c #DAB59C",
"k. c #FFB580",
"l. c #FFBE8E",
"z. c #FFB883",
"x. c #EABA9A",
"c. c #FFBF92",
"v. c #CBAFA2",
"b. c #CBB1A5",
"n. c #CCBAAD",
"m. c #FFC494",
"M. c #FFC897",
"N. c #FFCA9C",
"B. c #CCC1B9",
"V. c #FFCBA3",
"C. c #FFD2B4",
"Z. c #FDD6BA",
"A. c #FFDBBC",
"S. c #CCC9C5",
"D. c #CBCCCC",
"F. c #CECFD1",
"G. c #CDD0D3",
"H. c #D3D3D3",
"J. c #D8D7D8",
"K. c #DCDDDD",
"L. c #D5D7D8",
"P. c #FFDFC1",
"I. c #E3D9D3",
"U. c #FFE4CB",
"Y. c #FAE1CA",
"T. c #FFEAD5",
"R. c #FFECDB",
"E. c #FFE6D2",
"W. c #DADDE0",
"Q. c #E0DFE0",
"!. c #DFE1E2",
"~. c #E3E3E3",
"^. c #EBECEB",
"/. c #E6E7E6",
"(. c #EFF0EF",
"). c #FFF2E3",
"_. c #FFF6ED",
"`. c #EFF3F4",
"'. c #F3F3F3",
"]. c #FFFAF4",
"[. c #FFFFFF",
"{. c #FFF7F3",
"}. c None",
/* pixels */
"}.}.}.}.}.}.}.}.}.}.}.}.}.}.}.}.}.}.}.}.}.}.}.}.}.}.}.}.}.}.}.}.}.}.}.}.}.}.}.}.}.}.}.}.}.}.}.}.}.}.}.}.}.}.}.}.}.}.}.}.}.}.}.}.}.}.}.}.}.}.}.}.}.}.}.}.}.}.}.}.}.",
"}.}.}.}.}.}.}.}.}.}.}.}.}.}.}.}.}.}.}.}.}.}.}.}.}.}.}.}.}.}.}.}.}.}.}.}.}.}.}.}.}.}.}.}.}.}.}.}.}.}.}.}.}.}.}.}.}.}.}.}.}.}.}.}.}.}.}.}.}.}.}.}.}.}.}.}.}.}.}.}.}.",
"}.}.}.}.}.}.}.}.}. .}.}.}.}.}.}.}.}.}.}.}.}.}.}.}.}.}.}.}.}.}.}.}.}.}.}.}.}.}.}.}.}.}.}.}.}.}.}.}.}.}.}.}.}.}.}.}.}.}.}.}.}. .}.}.}.}.}.}.}.}.}.}.}.}.}.}.}.}.}.}.",
"}.}.}.}.}.}.}.}.}. . . . . .}.}.}.}.}.}.}.}.}.}.}.}.}.}.}.}.}.}.}.}.}.}.}.}.}.}.}.}.}.}.}.}.}.}.}.}.}.}.}.}.}.}.}.}. . . ... .}.}.}.}.}.}.}.}.}.}.}.}.}.}.}.}.}.}.",
"}.}.}.}.}.}.}.}.}. .X.X.X.X.o. .....}.}.}.}.}.}.}.}.}.}.}.}.}.}.}.}.}.}.}.}.}.}.}.}.}.}.}.}.}.}.}.}.}.}.}.}...X.X.o.X... .o. .}.}.}.}.}.}.}.}.}.}.}.}.}.}.}.}.}.}.",
"}.}.}.}.}.}.}.}.}. .X. . . . . .X.o.X.....}.}.}.}.}.}.}.}.}.}.}.}.}.}.}.}.}.}.}.}.}.}.}.}.}.}.}.}.}... . .o.o... ..... . .X. .}.}.}.}.}.}.}.}.}.}.}.}.}.}.}.}.}.}.",
"}.}.}.}.}.}.}.}.}.}.X. . . . .X. . ...X.X.X. .} }.}.}.}.}.}.}.}.}.}.}.}.}.}.}.}.}.}.}.}.}.}.}.}. ...X.o... . . . . . ..... .}.}.}.}.}.}.}.}.}.}.}.}.}.}.}.}.}.}.}.",
"}.}.}.}.}.}.}.}.}.}. . . . . . . ...........X.X.X...}.}.}.}.}.}.}.}.}.}.}.}.}.}.}.}.}.}.}.}.} X........... . . . . ....... .}.}.}.}.}.}.}.}.}.}.}.}.}.}.}.}.}.}.}.",
"}.}.}.}.}.}.}.}.}.}. .X. . . . .}  . . . . .}  .X.X. .X.}. . . . . ...o.o.X... ... . .}...X.X.X. . . . . . . . . . . . .X...}.}.}.}.}.}.}.}.}.}.}.}.}.}.}.}.}.}.}.",
"}.}.}.}.}.}.}.}.}.}. .o. . . . . . . . . . .X. . . .X.X.X.o.X.X...X.X.X. . .....X.o.o...X.X...}  . . . . . . . . . . . .X.}.}.}.}.}.}.}.}.}.}.}.}.}.}.}.}.}.}.}.}.",
"}.}.}.}.}.}.}.}.}.}.}.o.X. . . . . . . . . . . . . . . . . . .X. . . . . ... . . . . . . . . . . . .X. . . . . . . . . .X.}.}.}.}.}.}.}.}.}.}.}.}.}.}.}.}.}.}.}.}.",
"}.}.}.}.}.}.}.}.}.}.}. . . . . . . . . . . . . . . . . . .X. . . . . . . . . ... . . . . . . . . . . . . . ... . . . ... .}.}.}.}.}.}.}.}.}.}.}.}.}.}.}.}.}.}.}.}.",
"}.}.}.}.}.}.}.}.}.}.}. .X. . . .}  . . . . . . . . . . . . . . . . . ... . . . . . . . . . . . . . . . . . . . . . .X.X...}.}.}.}.}.}.}.}.}.}.}.}.}.}.}.}.}.}.}.}.",
"}.}.}.}.}.}.}.}.}.}.}. .o. . . .X. . . . . . . . .} } }  . . . . . . . . . . . . . . . . . . . . . . . . . . . . .....o.}.}.}.}.}.}.}.}.}.}.}.}.}.}.}.}.}.}.}.}.}.",
"}.}.}.}.}.}.}.}.}.}.}.}.X. .X. . . . . . . . . . .}  . . . . . . . . . . . . . . . . . . . . . . . . . . . . . . . .X. .}.}.}.}.}.}.}.}.}.}.}.}.}.}.}.}.}.}.}.}.}.",
"}.}.}.}.}.}.}.}.}.}.}.}.} X. . . . . . . . . .}  . . . . . . . . . . . . . . . . . . . . . . . . . . . . . . . ... .X. .}.}.}.}.}.}.}.}.}.}.}.}.}.}.}.}.}.}.}.}.}.",
"}.}.}.}.}.}.}.}.}.}.}.}...X. . . . . . . . . . . . . . . . . . . . . . . . . . . . . . . . . . . . . . . . . . . . .X.}.}.}.}.}.}.}.}.}.}.}.}.}.[.}.}.}.}.}.}.}.}.",
"}.}.}.}.}.}.}.}.}.}.}.}.}... . . . . . . . . . . . . . . . . . . . . . . . . . . . . . . . . . . . . . . . . . . .X. .}.}.}.}.}.}.}.}.}.}.}.}.).[.).}.}.}.}.}.}.}.",
"}.}.}.}.}.}.}.}.}.}.}.}.}...X. . . . . . . . . . . . . .X..... . . . . . . . . . . .X.X. . . . . . . . . . . . . .X. .}.}.}.}.}.}.}.}.}.}.}.T.[.[.[.U.}.}.}.}.}.}.",
"}.}.}.}.}.}.}.}.}.}.}.}.}.}.o. . . . . . . . . . . . . .` '  . . . . . . . . . . .{ ' '  . . . . . . . . . . . .X.X.}.}.}.}.}.}.}.}.}.}.}.}.[.[.[.[.].}.}.}.}.}.}.",
"}.}.}.}.}.}.}.}.}.}.}.}.}.X.X.}  . . . . . . . . . .X.H     G X.}  . . . . . . .X.s     ` X. . . . . . . . . . .X.{ G }.}.}.}.}.}.}.}.}.}.R.[.[.[.[.[.R.}.}.}.}.}.",
"}.}.}.}.}.}.}.}.}.}.}.}. .X.}  . . . . . . . . ..... .q     2 {  . .}  . . . ...' ,     i  . . . . . . . . . . .X.[ P }.}.}.}.}.}.}.}.}.}.[.[.[.[.[.[._.}.}.}.}.}.",
"}.}.}.}.}.}.}.}.}.}.}.}. .X. . . . . . . . . . . ...T   % *   P X. . . . . . .o.j   * X + {  . . . . . . . . ... . .P G }.}.}.}.}.}.}.}.E.[.[.[.[.[.[.[.}.}.}.}.}.",
"}.}.}.}.}.}.}.}.}.}.}.X.X. . . . . .X. . . . . .....T   % *   P X. . . . . .} X.d   *     { X. . . . ... . . . . . .` P }.}.}.}.}.}.}.}.{.[.[.[.[.[.[.[.).}.}.}.}.",
"}.}.}.}.}.}.}.}.}.}.}. .X.X. . . . . . . . . . . .X.T   & *   L X. . . . . .} X.d   * X   { X. . . . . . . . . . . .{ L L }.}.}.}.}.}.}.r.C.R.[.[.[.).A.m.}.}.}.}.",
"}.}.}.}.}.}.}.}.}.}.}.X. . . . . . . . . . . . . .X.T   % *   P X.{  . . . .{ X.d   *     { X. . . . . . . . . . . .{ L G }.}.}.}.}.}.} / / *.0.q.0.<./ / }.}.}.}.",
"}.}.}.}.}.}.}.}.}.}.X.X. . . . . . . . . . . . ...X.T   % *   P o. .X. . . .X.X.d   *     { X. . ... . ... . . . . . .P L L }.}.}.}.}. .&.%./ / ^ ^ / %.$. .}.}.}.",
"}.}.}.}.}.}.}.}.}.}. .X. . . . . . . . . . . . . ...T   % *   L X. . . . .X...X.d   *     { X. . . . . . . . . . . . .P L L }.}.}.}.}. .X...#.+.+.#.X. ... .}.}.}.",
"}.}.}.}.}.}.}.}.}.}. . . . . . . . . .} X. .}  . ...`   % *   P X. . ... . .} X.d   *     | .. . . . . . ... . . .....` G L }.}.}.}.}... . . . . . . . .X...}.}.}.",
"}.}.}.}.}.}.}.}.}.}.X.X. . . . . . . . . . . . .....`   O %   P X. . ... . . .X.S   *   > | .. . . . . . . . . . . ...' G G }.}.}.}. .X.X. . . . . . . .X...}.}.}.",
"}.}.}.}.}.}.}.}.}.X.X. . . . . . . . . . . . . ... . .q     2  ... .........X.X.[ <     s .. . ... . . . . . . . . ...' K L }.}.}. .X. . . . . . . . . .X...}.}.}.",
"}.}.}.}.}.}.}.}.}. .X. . . . . . . . . . . . . .X. . .L : = L ..{  .{  . .{ } { ..j   < ` .. . . . . . . . . . . . ...' K L P .. .X.X. . . . . . . . . .X.}.}.}.}.",
"}.}.}.}.}.}.}.}.}...X... . . . . . . ... . . . . . ...{ G G { P > * ; - - ; O 1 ' [ K H } .. . . . . . . . . . . . ...` K G ` o. . . . . . . . . . . .X. .}.}.}.}.",
"}.}.}.}.}.}.}.}.}...X... . . .+. .( } ( }  . .#.+.+.X. .[ ] X.q   o         %   f X.' | X.#.+.%.#. . .} ( (  . .+. ...' K H T X. . . . . . . . . . ...X.}.}.}.}.}.",
"}.}.}.}.}.}.}.}.}...X... . . ./ / X.#.#. ./ / / / ^ / } +.%.*.l   %         *   v =.%. .( / ^ ^ / / / X.#.#.../ / #...T G D T X. . . . . . . . .....o. .}.}.}.}.}.",
"}.}.}.}.}.}.}.}.}...X. . .} #.r.U.].].].{.R.A.M.k.q.<.$.) ^ ^ 0 @ &         =   p / ^ ) &.1.w.z.N.P.).].].].{.A.w./  .U G G T  . . . . . . . . ...X. .}.}.}.}.}.}.",
"}.}.}.}.}.}.}.}.}. .X...%.^ V.[.[.[.[.[.[.[.[.[.[.[.).E.Y.Z.C.f.  o . . . $   # j.C.Z.Y.T.).[.[.[.[.[.[.[.[.[.[.[.r.^ Q G G ` X. . . . ..... ...o. .}.}.}.}.}.}.}.",
"}.}.}.}.}.}.}.}.}.....%./ 0.].[.[.[.[.[.[.[.[.[.[.[.[.[.[.[.[.'.y.            p.[.[.[.[.[.[.[.[.[.[.[.[.[.[.[.[.[.).@.B H G ` X. . . . . ...X... .}.}.}.}.}.}.}.}.",
"}.}.}.}.}.}.}.}.}.}...%.^ m.[.[.[.[.[.[.[.[.[.[.[.[.[.[.[.[.].[.~.i.4 6 5 5 a./.[.].[.[.[.[.[.[.[.[.[.[.[.[.[.[.[.[.2.n H G ' X... ...X.X... .}.}.}.}.}.}.}.}.}.}.",
"}.}.}.}.}.}.}.}.}.}.X.%.^ M.[.[.[.[.[.[.[.[.[.[.[.[.[.[.[.[.[.[.].~.F.D.D.L./.[.[.[.[.[.[.[.[.[.[.[.[.[.[.[.[.[.[.[.5.n H A { X.X.o.o. ...}.}.}.}.}.}.}.}.}.}.}.}.",
"}.}.}.}.}.}.}.}.}.}. .+./ M.[.[.[.[.[.[.[.[.[.[.[.[.[.[.[.'.u.^.[.[.'.^.^.'.[.[.J.i.[.[.[.[.[.[.[.[.[.[.[.[.[.[.[.`.>.n H T  . .....}.}.}.}.}.}.}.}.}.}.}.}.}.}.}.",
"}.}.}.}.}.}.}.}.}.}. .$.^ l.[.[.[.[.[.[.[.[.[.[.[.[.[.[.[./.  p.[.[.[.[.[.[.[.[.t.  '.[.[.[.[.[.[.[.[.[.[.[.[.[.[.K.;.B L L }.}.}.}.}.}.}.}.}.}.}.}.}.}.}.}.}.}.}.",
"}.}.}.}.}.}.}.}.}.}.}.$.^ e.[.[.[.[.[.[.[.[.[.[.[.[.[.[.[.'.7   p./.'.[.[.'.~.u.  y.[.[.[.[.[.[.[.[.[.[.[.[.[.[.'.S.~ n L }.}.}.}.}.}.}.}.}.}.}.}.}.}.}.}.}.}.}.}.",
"}.}.}.}.}.}.}.}.}.}.}.#.( =.R.[.[.[.[.[.[.[.[.[.[.[.[.[.[.[.'.9     9 i.i.7     y.].[.[.[.[.[.[.[.[.[.[.[.[.[.[.K.g.V I L }.}.}.}.}.}.}.}.}.}.}.}.}.}.}.}.}.}.}.}.",
"}.}.}.}.}.}.}.}.}.}.}...&.^ C.[.[.[.[.[.[.[.[.[.[.[.[.[.[.[.[.].J.9 3     3 t.~.[.[.[.[.[.[.[.[.[.[.[.[.[.[.[./.D.6.n ! }.}.}.}.}.}.}.}.}.}.}.}.}.}.}.}.}.}.}.}.}.",
"}.}.}.}.}.}.}.}.}.}.}.}.#.( <._.[.[.[.[.[.[.[.[.[.[.[.[.[.[.[.[.[.[.[.[.[.[.[.[.[.[.[.[.[.[.[.[.[.[.[.[.[.[.^.G.n.V U H }.}.}.}.}.}.}.}.}.}.}.}.}.}.}.}.}.}.}.}.}.",
"}.}.}.}.}.}.}.}.}.}.}.}.}.&.^ V.[.[.[.[.[.[.[.[.[.[.[.[.[.[.[.[.[.[.[.[.[.[.[.[.[.[.[.[.[.[.[.[.[.[.[.[.[.'.H.S.4.n H }.}.}.}.}.}.}.}.}.}.}.}.}.}.}.}.}.}.}.}.}.}.",
"}.}.}.}.}.}.}.}.}.}.}.}.}.} $./ P.[.[.[.[.[.[.[.[.[.[.[.[.[.[.[.[.[.[.[.[.[.[.[.[.[.[.[.[.[.[.[.[.[.[.[.'.F.D.s.n Q L }.}.}.}.}.}.}.}.}.}.}.}.}.}.}.}.}.}.}.}.}.}.",
"}.}.}.}.}.}.}.}.}.}.}.}.}.}.] ..=.R.[.[.[.[.[.[.[.[.[.[.[.[.[.[.[.[.[.[.[.[.[.[.[.[.[.[.[.[.[.[.[.[.[.'.H.D.h.B U j }.}.}.}.}.}.}.}.}.}.}.}.}.}.}.}.}.}.}.}.}.}.}.",
"}.}.}.}.}.}.}.}.}.}.}.}.}.}.}.O./ -.E.[.[.[.[.[.[.[.[.[.[.[.[.[.[.[.[.[.[.[.[.[.[.[.[.[.[.[.[.[.[.[.~.D.F.d.B L S }.}.}.}.}.}.}.}.}.}.}.}.}.}.}.}.}.}.}.}.}.}.}.}.",
"}.}.}.}.}.}.}.}.}.}.}.}.}.}.}.}.! / ) C.[.[.[.[.[.[.[.[.[.[.[.[.[.[.[.[.[.[.[.[.[.[.[.[.[.[.[.[.'.J.D.S.7.n L F }.}.}.}.}.}.}.}.}.}.}.}.}.}.}.}.}.}.}.}.}.}.}.}.}.",
"}.}.}.}.}.}.}.}.}.}.}.}.}.}.}.}.}.E ] ^ m._.[.[.[.[.[.[.[.[.[.[.[.[.[.[.[.[.[.[.[.[.[.[.[.[.'.~.G.F.n.:.M Q S }.}.}.}.}.}.}.}.}.}.}.}.}.}.}.}.}.}.}.}.}.}.}.}.}.}.",
"}.}.}.}.}.}.}.}.}.}.}.}.}.}.}.}.}.}.k E Y 1.Z.).[.[.[.[.[.[.[.[.[.[.[.[.[.[.[.[.[.[.[.].^.K.G.D.n.d.V C E h }.}.}.}.}.}.}.}.}.}.}.}.}.}.}.}.}.}.}.}.}.}.}.}.}.}.}.",
"}.}.}.}.}.}.}.}.}.}.}.}.}.}.}.}.}.}.}.r b C N ,.x.Y.[.[.[.[.[.[.[.[.[.[.[.[.[.[.'./.!.L.D.D.g.6.V M I F q }.}.}.}.}.}.}.}.}.}.}.}.}.}.}.}.}.}.}.}.}.}.}.}.}.}.}.}.",
"}.}.}.}.}.}.}.}.}.}.}.}.}.}.}.}.}.}.}.}.}.g ~ n M A 5.j.I./.^.'.`.`.'.`.^.!.K.H.D.S.S.n.9.;.C C H W r }.}.}.}.}.}.}.}.}.}.}.}.}.}.}.}.}.}.}.}.}.}.}.}.}.}.}.}.}.}.",
"}.}.}.}.}.}.}.}.}.}.}.}.}.}.}.}.}.}.}.}.}.}.}.x v S Z M n J :.9.f.b.b.b.b.b.g.d.7.:.J n Z Z F b u }.}.}.}.}.}.}.}.}.}.}.}.}.}.}.}.}.}.}.}.}.}.}.}.}.}.}.}.}.}.}.}.",
"}.}.}.}.}.}.}.}.}.}.}.}.}.}.}.}.}.}.}.}.}.}.}.}.}.t g g F H C M M M M M M M M M M C K F g a }.}.}.}.}.}.}.}.}.}.}.}.}.}.}.}.}.}.}.}.}.}.}.}.}.}.}.}.}.}.}.}.}.}.}.",
"}.}.}.}.}.}.}.}.}.}.}.}.}.}.}.}.}.}.}.}.}.}.}.}.}.}.}.}.}.}.y z c v v v v v v c l y }.}.}.}.}.}.}.}.}.}.}.}.}.}.}.}.}.}.}.}.}.}.}.}.}.}.}.}.}.}.}.}.}.}.}.}.}.}.}.",
"}.}.}.}.}.}.}.}.}.}.}.}.}.}.}.}.}.}.}.}.}.}.}.}.}.}.}.}.}.}.}.}.}.}.}.}.}.}.}.}.}.}.}.}.}.}.}.}.}.}.}.}.}.}.}.}.}.}.}.}.}.}.}.}.}.}.}.}.}.}.}.}.}.}.}.}.}.}.}.}.}.",
"}.}.}.}.}.}.}.}.}.}.}.}.}.}.}.}.}.}.}.}.}.}.}.}.}.}.}.}.}.}.}.}.}.}.}.}.}.}.}.}.}.}.}.}.}.}.}.}.}.}.}.}.}.}.}.}.}.}.}.}.}.}.}.}.}.}.}.}.}.}.}.}.}.}.}.}.}.}.}.}.}.",
"}.}.}.}.}.}.}.}.}.}.}.}.}.}.}.}.}.}.}.}.}.}.}.}.}.}.}.}.}.}.}.}.}.}.}.}.}.}.}.}.}.}.}.}.}.}.}.}.}.}.}.}.}.}.}.}.}.}.}.}.}.}.}.}.}.}.}.}.}.}.}.}.}.}.}.}.}.}.}.}.}.",
"}.}.}.}.}.}.}.}.}.}.}.}.}.}.}.}.}.}.}.}.}.}.}.}.}.}.}.}.}.}.}.}.}.}.}.}.}.}.}.}.}.}.}.}.}.}.}.}.}.}.}.}.}.}.}.}.}.}.}.}.}.}.}.}.}.}.}.}.}.}.}.}.}.}.}.}.}.}.}.}.}.",
"}.}.}.}.}.}.}.}.}.}.}.}.}.}.}.}.}.}.}.}.}.}.}.}.}.}.}.}.}.}.}.}.}.}.}.}.}.}.}.}.}.}.}.}.}.}.}.}.}.}.}.}.}.}.}.}.}.}.}.}.}.}.}.}.}.}.}.}.}.}.}.}.}.}.}.}.}.}.}.}.}.",
"}.}.}.}.}.}.}.}.}.}.}.}.}.}.}.}.}.}.}.}.}.}.}.}.}.}.}.}.}.}.}.}.}.}.}.}.}.}.}.}.}.}.}.}.}.}.}.}.}.}.}.}.}.}.}.}.}.}.}.}.}.}.}.}.}.}.}.}.}.}.}.}.}.}.}.}.}.}.}.}.}."
};
