/* XPM */
static char *result[] = {
/* columns rows colors chars-per-pixel */
"67 64 232 2 ",
"   c #7B581F",
".  c #9D7411",
"X  c #9E7412",
"o  c #9E7413",
"O  c #9E7414",
"+  c #9F7414",
"@  c #9F7515",
"#  c #A07515",
"$  c #A07516",
"%  c #A07616",
"&  c #A17617",
"*  c #A17618",
"=  c #A27719",
"-  c #A2771A",
";  c #A3771A",
":  c #A3771B",
">  c #A3781B",
",  c #A4781B",
"<  c #A4781C",
"1  c #A5781C",
"2  c #A4791C",
"3  c #A4791D",
"4  c #A5791D",
"5  c #A67A1F",
"6  c #A77A1F",
"7  c #A77B1F",
"8  c #805C24",
"9  c #826024",
"0  c #866226",
"q  c #876327",
"w  c #886226",
"e  c #896326",
"r  c #A77A20",
"t  c #A77B20",
"y  c #A87B21",
"u  c #A87C21",
"i  c #A97C22",
"p  c #A97C23",
"a  c #AA7D24",
"s  c #AB7D24",
"d  c #AB7E24",
"f  c #AB7E25",
"g  c #AC7E26",
"h  c #AC7F26",
"j  c #AC7F27",
"k  c #AD7F27",
"l  c #AC7F34",
"z  c #AD8027",
"x  c #AE8028",
"c  c #AF8028",
"v  c #AF8029",
"b  c #AF8129",
"n  c #B0812A",
"m  c #B1822A",
"M  c #B1822B",
"N  c #B1822C",
"B  c #B2832C",
"V  c #B3832D",
"C  c #B3842E",
"Z  c #B4842F",
"A  c #B4852F",
"S  c #B28333",
"D  c #B58530",
"F  c #B68630",
"G  c #B78631",
"H  c #B78632",
"J  c #B78732",
"K  c #B38336",
"L  c #B38536",
"P  c #B48437",
"I  c #B88732",
"U  c #B88833",
"Y  c #B98833",
"T  c #B98834",
"R  c #BA8934",
"E  c #BA8935",
"W  c #BB8935",
"Q  c #BB8A35",
"!  c #BB8936",
"~  c #BD8936",
"^  c #BD8937",
"/  c #BC8A36",
"(  c #BC8B36",
")  c #BC8A37",
"_  c #BD8A37",
"`  c #BD8B37",
"'  c #BE8A37",
"]  c #BE8C37",
"[  c #BC8B38",
"{  c #BE8B38",
"}  c #BF8B38",
"|  c #BE8C38",
" . c #BF8C38",
".. c #BF8C39",
"X. c #BF8D39",
"o. c #BE8C3A",
"O. c #C08D39",
"+. c #C08D3A",
"@. c #C18D3A",
"#. c #C08D3B",
"$. c #C18D3B",
"%. c #C08E3A",
"&. c #C18E3A",
"*. c #C08E3B",
"=. c #C18E3B",
"-. c #C18F3B",
";. c #C28E3B",
":. c #C28F3B",
">. c #C18E3C",
",. c #C18F3C",
"<. c #C28E3C",
"1. c #C28F3C",
"2. c #C38F3C",
"3. c #C38F3D",
"4. c #C2903B",
"5. c #C6903A",
"6. c #C2903C",
"7. c #C3903C",
"8. c #C3903D",
"9. c #C3913D",
"0. c #C6923D",
"q. c #C7923D",
"w. c #C7933D",
"e. c #C4913E",
"r. c #C4923E",
"t. c #C5933F",
"y. c #C8933D",
"u. c #C9943D",
"i. c #CB943C",
"p. c #C9943E",
"a. c #CA953E",
"s. c #CB953E",
"d. c #CB963E",
"f. c #CC963E",
"g. c #CD973F",
"h. c #CE973F",
"j. c #CE983F",
"k. c #C69340",
"l. c #C69440",
"z. c #C79440",
"x. c #C79541",
"c. c #C89642",
"v. c #C99743",
"b. c #C99843",
"n. c #CF9840",
"m. c #CA9844",
"M. c #CB9944",
"N. c #CB9945",
"B. c #CB9A44",
"V. c #CB9A45",
"C. c #CC9A45",
"Z. c #CC9B45",
"A. c #CC9B46",
"S. c #CC9C46",
"D. c #CD9C47",
"F. c #CE9D48",
"G. c #CF9E48",
"H. c #CF9F48",
"J. c #D09F49",
"K. c #D19F49",
"L. c #D09F4A",
"P. c #D0A049",
"I. c #D0A04A",
"U. c #D1A04A",
"Y. c #D0A14A",
"T. c #D1A04B",
"R. c #D2A04A",
"E. c #D2A14B",
"W. c #D2A24B",
"Q. c #D3A24B",
"!. c #D3A24C",
"~. c #D3A34C",
"^. c #D3A34D",
"/. c #D4A34D",
"(. c #D4A44D",
"). c #D5A54E",
"_. c #D6A64F",
"`. c #D6A74F",
"'. c #D9A64D",
"]. c #DEAB4F",
"[. c #D7A750",
"{. c #D7A850",
"}. c #D8A850",
"|. c #D8A851",
" X c #D8A951",
".X c #D9A951",
"XX c #D9AA52",
"oX c #DAAA52",
"OX c #DAAB52",
"+X c #DBAB53",
"@X c #DCAC54",
"#X c #DCAD54",
"$X c #DDAD54",
"%X c #DCAD55",
"&X c #DDAD55",
"*X c #DDAE55",
"=X c #DEAE55",
"-X c #DEAE56",
";X c #DEAF56",
":X c #DFAF56",
">X c #DEAF57",
",X c #DFAF57",
"<X c #DEB056",
"1X c #DFB056",
"2X c #DEB057",
"3X c #DFB057",
"4X c #DFB157",
"5X c #DFB158",
"6X c #E0B057",
"7X c #E0B157",
"8X c #E0B058",
"9X c #E0B158",
"0X c #E1B158",
"qX c #E0B258",
"wX c #E1B258",
"eX c #E1B259",
"rX c #E1B359",
"tX c #E2B258",
"yX c #E2B358",
"uX c #E2B359",
"iX c #E7B65A",
"pX c #E8B75A",
"aX c #EABA5C",
"sX c #EBBA5C",
"dX c #ECBA5C",
"fX c #EDBB5C",
"gX c #EEBC5D",
"hX c #EFBD5D",
"jX c #F0BE5E",
"kX c #F0BE5F",
"lX c #F3C05F",
"zX c None",
/* pixels */
"zXzXzXzXzXzXzXzXzXzXzXzXzXzXzXzXzXzXzXzXzXzXzXzXzXzXzXzXzXzXzXzXzXzXzXzXzXzXzXzXzXzXzXzXzXzXzXzXzXzXzXzXzXzXzXzXzXzXzXzXzXzXzXzXzXzXzX",
"zXzXzXzXzXzXzXzXzXzXzXzXzXzXzXzXzXzXzXzXzXzXzXzXzXzXzXzXzXzXzXzXzXzXzXzXzXzXzXzXzXzXzXzXzXzXzXzXzXzXzXzXzXzXzXzXzXzXzXzXzXzXzXzXzXzXzX",
"zXzXzXzXzXzXzXzXzXzXzXzXzXzXzXzXzXzXzXzXzXzXzXzXzXzXzXzXzXzXzXzXzXzXzXzXzXzXzXzXzXzXzXzXzXzXzXzXzXzXzXzXzXzXzXzXzXzXzXzXzXzXzXzXzXzXzX",
"zXzXzXzXzXzXzXzXzXzXzXzXzXzXzXzXzXzXzXzXzXzXzXzXzXzXzXzXzXzXzXzXzXzXzXzXzXzXzXzXzXzXzXzXzXzXzXzXzXzXzXzXzXzXzXzXzXzXzXzXzXzXzXzXzXzXzX",
"zXzXzXzXzXzXzXzXzXzXzXzXzXzXzXzXzXzXzXzXzXzXzXzXzXzXzXzXzXzXzXzXzXzXzXzXzXzXzXzXzXzXzXzXzXzXzXzXzXzXzXzXzXzXzXzXzXzXzXzXzXzXzXzXzXzXzX",
"zXzXzXzXzXzXzXzXzXzXzXzXzXzXzXzXzXzXzXzXzXzXzXzXzXzXzXzXzXzXzXzXzXzXzXzXzXzXzXzXzXzXzXzXzXzXzXzXzXzXzXzXzXzXzXzXzXzXzXzXzXzXzXzXzXzXzX",
"zXzXzXzXzXzXzX:XlXsXfXfXfXfXfXfXfXfXfXfXfXfXfXfXfXfXfXfXfXfXfXfXfXfXfXfXfXfXfXfXfXfXfXfXfXfXfXfXfXfXfXfXfXfXfXfXdXhX<XzXzXzXzXzXzXzXzX",
"zXzXzXzXzXzXzXfX3X2X6X6X6X6X0XwXwXwXwXwXwXwXwXwXwXwXwXwXwXwXwXwXwXwXwXwXwXwXwXwXwXwXtXyXwX7X6X6X6X6X6X6X6X6X6X6X7X6XjX=XzXzXzXzXzXzXzX",
"zXzXzXzXzXzXzXiX,X3X3X3X3X4X{.R.E.E.E.E.E.E.E.E.E.E.E.E.E.E.E.E.E.E.E.E.E.E.E.E.E.E.U.K.Q..X3X3X3X3X3X3X3X3X3X3X3X6XfX8XzXzXzXzXzXzXzX",
"zXzXzXzXzXzXzXpX,X3X3X3X3X9XS.} 7.:.:.:.:.:.:.:.:.:.:.:.:.:.:.:.:.:.:.:.:.:.:.:.1.7.x.L. X;X3X3X3X3X3X3X3X3X3X3X3X6XgX6XzXzXzXzXzXzXzX",
"zXzXzXzXzXzXzXpX,X3X3X3X3XqXA.G.;X#X$X$X$X$X$X$X$X$X$X$X$X$X$X$X$X$X$X$X$X$X$X$X$X:X9XeXqX3X3X3X3X3X3X3X3X3X3X3X3X6XgX6XzXzXzXzXzXzXzX",
"zXzXzXzXzXzXzXpX,X3X3X3X3XqXZ.U.rX3X9X9X9X9X9X9X9X5X9X9X9X9X9X5X9X9X3X4X6X3X4X7X4X3X3X3X3X3X3X3X3X9XeX7X3X3X3X3X3X6XgX6XzXzXzXzXzXzXzX",
"zXzXzXzXzXzXzXpX,X3X3X3X3XqXZ.J.wX;X3X3X3X3X3X3X3X3X3X3X3X3X3X3X3X1X1X1X3X3X3X3X3X3X3X3X3X3X9XwX7X@X^.V.+X9X3X3X3X6XgX6XzXzXzXzXzXzXzX",
"zXzXzXzXzXzXzXpX,X3X3X3X3XqXA.J.eX3X3X3X3X3X3X3X3X3X3X3X3X3X1X3X3X3X3X3X3X3X3X3X3X3X3X9XwX4X+X!.v.+.~ 7.@X9X3X3X3X6XgX6XzXzXzXzXzXzXzX",
"zXzXzXzXzXzXzXpX,X3X3X3X3XqXA.J.eX3X3X3X3X3X3X3X3X3X3X3X1X3X3X3X3X3X3X3X3X3X3X3X9XwX3XoXW.c.O._ =.M.(.$X3X3X3X3X3X6XgX6XzXzXzXzXzXzXzX",
"zXzXzXzXzXzXzXpX,X3X3X3X3XqXA.J.eX3X3X3X3X3X3X3X1X3X3X3X3X3X3X3X3X3X3X3X3X9XqX3XXXT.z..._ 1.C.).%X9XeX7X3X3X3X3X3X6XgX6XzXzXzXzXzXzXzX",
"zXzXzXzXzXzXzXpX,X3X3X3X3XqXA.P.eX3X3X3X3X3X3X3X3X3X3X3X3X3X3X3X3X3XqXwX;X XJ.k..._ 9.A._.*X9XwX7X3X3X3X3X3X3X3X3X6XgX6XzXzXzXzXzXzXzX",
"zXzXzXzXzXzXzXpX,X3X3X3X3XqXB.H.eX<X3X3X3X3X3X3X3X3X3X3X3X3X4X9XwX;X|.G.r.} ' r.D.[.*XwXqX7X3X3X3X3X3X3X3X3X3X3X3X6XgX6XzXzXzXzXzXzXzX",
"zXzXzXzXzXzXzXpX,X3X3X3X3X9X~.}.9X3X3X3X3X3X3X3X3X3X3X9XqXqX*X[.D.e.' { t.F.|.-XwX9X4X3X3X3X3X3X3X3X3X3X3X3X3X3X3X6XgX6XzXzXzXzXzXzXzX",
"zXzXzXzXzXzXzXpX,X3X3X3X3X3X9X9X3X3X3X3X3X3X3X3X9XqX9X&X`.A.8.' } l.J..X;XwX9X3X3X3X3X3X3X3X3X3X3X3X3X3X3X3X3X3X3X6XgX6XzXzXzXzXzXzXzX",
"zXzXzXzXzXzXzXpX,X3X3X3X3X3X3X3X3X3X3X3X3X9XeX9X%X).N.6.^ ..z.T.oX3XwX9X3X3X3X3X3X3X3X3X3X3X3X3X3X3X3X3X3X3X3X3X3X6XgX6XzXzXzXzXzXzXzX",
"zXzXzXzXzXzXzXpX,X3X3X3X3X3X3X3X3X3X3X7X;X+X!.b.=.~ +.c.W.oX6XwX9X3X3X3X3X3X3X3X3X3X3X3X3X3X3X3X3X3X3X3X3X3X3X3X3X6XgX6XzXzXzXzXzXzXzX",
"zXzXzXzXzXzXzXpX,X3X3X3X3X3X3X3X3X3X3XOXU.m.x.x.C./.+X7XwX9X3X3X3X3X3X3X3X3X3X3X3X3X3X3X3X3X3X3X3X3X3X3X3X3X3X3X3X6XgX6XzXzXzXzXzXzXzX",
"zXzXzXzXzXzXzXiX,X;X>X>X>X>X>X>X>X>X>X;X-X3X3X3X7X9X4X;X;X;X;X>X>X>X>X>X>X>X>X>X>X>X>X>X>X>X>X>X>X>X>X>X>X>X>X>X>X<XfX2XzXzXzXzXzXzXzX",
"zXzXzXzXzXzXzXaXeXeXeXeXeXeXeXeXeXeXeXrXuXeXeXeXeXeXeXeXeXeXeXeXeXeXeXeXeXeXeXeXeXeXeXeXeXeXeXeXeXeXeXeXeXeXeXeXeXyXkXrXzXzXzXzXzXzXzX",
"zXzXzXzXzXzXzX'.T.I.U.U.U.U.U.U.U.U.U.U.U.U.U.U.U.I.U.U.U.U.U.U.U.U.U.U.U.U.U.U.U.I.U.U.U.U.U.U.U.U.U.U.U.U.U.U.I.Y.].U.zXzXzXzXzXzXzX",
"zXzXzXzXzXzXzX5.' { { { { { { { { { { { { { { { { { { { { { { { { { { { { { { { { { { { { { { { { { { { { { { { { { i.} zXzXzXzXzXzXzX",
"zXzXzXzXzXzXzXp.;.,.1.1.1.1.1.,.,.-.,.,.,.,.,.,.,.,.,.,.,.,.,.,.,.,.-.,.,.,.-.,.,.-.,.,.-.,.1.1.1.1.1.1.1.1.1.1.1.1.n.4.zXzXzXzXzXzXzX",
"zXzXzXzXzXzXzXu.&.=.=.=.=.=.=.=.=.=.=.=.=.=.=.=.=.=.=.=.=.=.=.=.=.=.=.=.=.=.=.=.=.=.=.=.<.1.=.=.=.=.=.=.=.=.=.=.=.=.h.;.zXzXzXzXzXzXzX",
"zXzXzXzXzXzXzXu.&.=.=.=.=.=.+...........................................................| ] =.=.=.=.=.=.=.=.=.=.=.=.h.;.zXzXzXzXzXzXzX",
"zXzXzXzXzXzXzXu.&.=.=.=.=.1.M 2 6 6 6 6 6 6 6 6 6 6 6 6 6 6 6 6 6 6 6 6 6 6 6 6 6 6 6 6 d I =.=.=.=.=.=.=.=.=.=.=.=.h.;.zXzXzXzXzXzXzX",
"zXzXzXzXzXzXzXu.&.=.=.=.=.1.x ; R ) / / / / / / / / / / / / / / / / / / / / / / / / / ! X.1.=.=.=.=.=.=.=.=.=.=.=.=.h.;.zXzXzXzXzXzXzX",
"zXzXzXzXzXzXzXu.&.=.=.=.=.1.x 1 +.3.1.1.1.1.1.1.1.1.1.1.1.1.1.1.1.1.1.1.1.1.1.1.1.1.1.1.=.=.=.=.=.=.=.=.=.=.=.=.=.=.h.=.zXzXzXzXzXzXzX",
"zXzXzXzXzXzXzXu.&.=.=.=.=.1.x ,  .=.=.=.=.=.=.=.=.=.=.=.=.=.=.=.=.=.=.=.=.=.=.&.&.=.=.=.=.=.=.=.=.=.=.=.=.=.=.=.=.=.j.1.zXzXzXzXzXzXzX",
"zXzXzXzXzXzXzXu.&.=.=.=.=.1.x < ..>.=.=.=.=.=.=.=.=.=.=.=.=.=.=.=.=.=.=.=.@.=.=.=.=.=.=.=.=.=.=.=.=.=.=.=.=.=.=.=.=.g.o.zXzXzXzXzXzXzX",
"zXzXzXzXzXzXzXw.=.=.=.=.=.1.x < ..>.=.=.=.=.=.=.=.=.=.=.=.=.=.=.=.=.=.&.&.=.=.=.=.=.=.=.=.=.=.=.=.=.2.O.+.=.=.=.=.@.d.L zXzXzXzXzXzXzX",
"zXzXzXzXzXzX8 q.=.=.=.=.=.1.x < ..>.=.=.=.=.=.=.=.=.=.=.=.=.=.=.=.=.=.=.=.=.=.=.=.=.=.=.=.=.*.=.2.+.Z 7 / 1.=.=.=.@.d.P zXzXzXzXzXzXzX",
"zXzXzXzXzXzXzXw.;.=.=.=.=.1.x < ..>.=.=.=.=.=.=.=.=.=.=.=.=.=.@.=.=.=.=.=.=.=.=.=.=.=.=.=.=.2.+.D 5 . t ..=.=.=.=.@.d.L zXzXzXzXzXzXzX",
"zXzXzXzXzXzXzXq.=.=.=.=.=.1.x < ..>.=.=.=.=.=.=.=.=.=.=.=.=.=.=.=.=.=.=.=.=.=.=.=.=.=.=.2.+.F 5 X 4 A +.=.=.=.=.=.@.d.L zXzXzXzXzXzXzX",
"zXzXzXzXzXzXzXq.=.=.=.=.=.1.x < ..>.=.=.=.=.=.=.=.=.=.=.=.=.=.=.=.=.=.=.=.=.=.=.=.=.2.&.G r X 3 Z +.2.=.&.=.=.=.=.@.d.L zXzXzXzXzXzXzX",
"zXzXzXzXzXzXzXq.=.=.=.=.=.1.x < ..>.=.=.=.=.=.=.=.=.=.=.=.=.=.=.=.=.=.=.=.=.=.=.2.&.H y X < C X.2.=.=.=.=.=.=.=.=.@.d.L zXzXzXzXzXzXzX",
"zXzXzXzXzXzXzXq.=.=.=.=.=.1.x < ..>.=.=.=.=.=.=.=.=.=.=.=.=.=.=.=.=.=.=.=.=.1.=.J u X > V X.2.=.*.=.=.=.=.=.=.=.=.@.d.L zXzXzXzXzXzXzX",
"zXzXzXzXzXzXzXq.=.=.=.=.=.1.x < ..>.=.=.=.*.$.=.=.=.=.=.=.=.=.=.=.=.=.=.1.=.U i o : B  .2.=.*.=.=.=.=.=.=.=.=.=.=.@.d.L zXzXzXzXzXzXzX",
"zXzXzXzXzXzXzXq.=.=.=.=.=.1.x < ..>.=.=.+.=.=.=.=.=.=.=.=.=.=.=.=.=.1.;.Y p o - N | 2.<.=.=.=.=.=.=.=.=.=.=.=.=.=.@.d.L zXzXzXzXzXzXzX",
"zXzXzXzXzXzXzXq.=.=.=.=.=.1.c ;  .=.%.=.=.=.=.=.=.=.=.=.=.=.=.=.1.;.Y a O - M | 2.<.=.=.=.=.=.=.=.=.=.=.=.=.=.=.=.@.d.L zXzXzXzXzXzXzX",
"zXzXzXzXzXzXzXq.=.=.=.=.=.1.z i +.=.=.=.=.=.=.=.=.=.=.=.=.=.1.1.T s + = m | 2.1.=.=.=.=.=.=.=.=.=.=.=.=.=.=.=.=.=.@.d.L zXzXzXzXzXzXzX",
"zXzXzXzXzXzXzXq.=.=.=.=.=.=./ X.=.=.=.=.=.=.=.=.=.=.=.=.1.1.R f + * n ` 2.1.=.=.=.=.=.=.=.=.=.=.=.=.=.=.=.=.=.=.=.@.d.L zXzXzXzXzXzXzX",
"zXzXzXzXzXzXzXq.=.=.=.=.=.=.1.=.=.=.=.=.=.=.=.=.=.=.1.1.W g @ & v ` 2.1.=.=.=.=.=.=.=.=.=.=.=.=.=.=.=.=.=.=.=.=.=.@.d.L zXzXzXzXzXzXzX",
"zXzXzXzXzXzXzXq.=.=.=.=.=.=.=.=.=.=.=.=.=.=.=.=.1.1.W j # % x ( 1.1.=.=.=.=.=.=.=.=.=.=.=.=.=.=.=.=.=.=.=.=.=.=.=.@.d.L zXzXzXzXzXzXzX",
"zXzXzXzXzXzXzXq.=.=.=.=.=.=.=.=.=.=.=.=.=.=.1.1./ k # $ x / 1.1.=.=.=.=.=.=.=.=.=.=.=.=.=.=.=.=.=.=.=.=.=.=.=.=.=.@.d.L zXzXzXzXzXzXzX",
"zXzXzXzXzXzXzXq.=.=.=.=.=.=.=.=.=.=.=.=.1.2./ x % # k / 1.1.=.=.=.=.=.=.=.=.=.=.=.=.=.=.=.=.=.=.=.=.=.=.=.=.=.=.=.@.d.L zXzXzXzXzXzXzX",
"zXzXzXzXzXzXzXq.=.=.=.=.=.=.=.=.=.=.=.=.E h # @ g Q 1.1.=.=.=.=.=.=.=.=.=.=.=.=.=.=.=.=.=.=.=.=.=.=.=.=.=.=.=.=.=.@.d.L zXzXzXzXzXzXzX",
"zXzXzXzXzXzXzXq.=.=.=.=.=.=.=.=.=.=.=.Y k f b R :.1.&.&.=.=.=.=.=.=.=.=.=.=.=.=.=.=.=.=.=.=.=.=.=.=.=.&.=.=.=.=.=.@.d.L zXzXzXzXzXzXzX",
"zXzXzXzXzXzXzXq.=.=.=.=.=.=.=.=.=.=.=.+.;.1.2.1.=.=.=.=.=.=.=.=.=.=.=.=.=.=.=.=.=.=.=.=.=.=.=.=.=.=.=.=.=.=.=.=.=.@.d.K zXzXzXzXzXzXzX",
"zXzXzXzXzXzXzX0.&.=.=.=.=.=.=.=.=.=.=.=.=.=.=.=.=.=.=.=.=.=.=.=.=.=.=.=.=.=.=.=.=.=.=.=.=.=.=.=.=.=.=.=.=.=.=.=.=.@.s.P zXzXzXzXzXzXzX",
"zXzXzXzXzXzXzXa.=.@.&.&.&.&.&.&.&.&.&.&.&.&.&.&.&.&.&.&.&.&.&.&.&.&.&.&.&.&.&.&.&.&.&.&.&.&.&.&.&.&.&.&.&.&.&.&.&.#.h.S zXzXzXzXzXzXzX",
"zXzXzXzXzXzXzXl f.y.u.u.u.u.u.u.u.u.u.u.u.u.u.u.u.u.u.u.u.u.u.u.u.u.u.u.u.u.u.u.u.u.u.u.u.u.u.u.u.u.u.u.u.u.u.u.y.s.[   zXzXzXzXzXzXzX",
"zXzXzXzXzXzXzXzX9 w 0 0 0 0 0 0 0 0 0 0 0 0 0 0 0 0 0 0 0 0 0 0 0 0 0 0 0 0 0 0 0 0 0 0 0 0 0 0 0 0 0 0 0 0 0 0 q e zXzXzXzXzXzXzXzXzX",
"zXzXzXzXzXzXzXzXzXzXzXzXzXzXzXzXzXzXzXzXzXzXzXzXzXzXzXzXzXzXzXzXzXzXzXzXzXzXzXzXzXzXzXzXzXzXzXzXzXzXzXzXzXzXzXzXzXzXzXzXzXzXzXzXzXzXzX",
"zXzXzXzXzXzXzXzXzXzXzXzXzXzXzXzXzXzXzXzXzXzXzXzXzXzXzXzXzXzXzXzXzXzXzXzXzXzXzXzXzXzXzXzXzXzXzXzXzXzXzXzXzXzXzXzXzXzXzXzXzXzXzXzXzXzXzX",
"zXzXzXzXzXzXzXzXzXzXzXzXzXzXzXzXzXzXzXzXzXzXzXzXzXzXzXzXzXzXzXzXzXzXzXzXzXzXzXzXzXzXzXzXzXzXzXzXzXzXzXzXzXzXzXzXzXzXzXzXzXzXzXzXzXzXzX",
"zXzXzXzXzXzXzXzXzXzXzXzXzXzXzXzXzXzXzXzXzXzXzXzXzXzXzXzXzXzXzXzXzXzXzXzXzXzXzXzXzXzXzXzXzXzXzXzXzXzXzXzXzXzXzXzXzXzXzXzXzXzXzXzXzXzXzX",
"zXzXzXzXzXzXzXzXzXzXzXzXzXzXzXzXzXzXzXzXzXzXzXzXzXzXzXzXzXzXzXzXzXzXzXzXzXzXzXzXzXzXzXzXzXzXzXzXzXzXzXzXzXzXzXzXzXzXzXzXzXzXzXzXzXzXzX",
"zXzXzXzXzXzXzXzXzXzXzXzXzXzXzXzXzXzXzXzXzXzXzXzXzXzXzXzXzXzXzXzXzXzXzXzXzXzXzXzXzXzXzXzXzXzXzXzXzXzXzXzXzXzXzXzXzXzXzXzXzXzXzXzXzXzXzX"
};
