/* XPM */
static char *result[] = {
/* columns rows colors chars-per-pixel */
"64 64 55 1 ",
"  c #814500",
". c #804D04",
"X c #845908",
"o c #8C610A",
"O c #96660A",
"+ c #877418",
"@ c #A16D0B",
"# c #A5700D",
"$ c #B47B0D",
"% c #BB7F0E",
"& c #9E8519",
"* c #BE810F",
"= c #A68014",
"- c #AE8C17",
"; c #A28A1C",
": c #AB8A18",
"> c #B18D19",
", c #B5971E",
"< c #BB9F1F",
"1 c #C4850F",
"2 c #CC860C",
"3 c #CF8B0F",
"4 c #D08C0F",
"5 c #D8900F",
"6 c #CF8C10",
"7 c #D08D10",
"8 c #D39312",
"9 c #DB9411",
"0 c #D69B16",
"q c #D89D17",
"w c #D59D18",
"e c #D89F18",
"r c #E19911",
"t c #DAA41A",
"y c #DDAA1C",
"u c #E4A518",
"i c #E0AF1E",
"p c #E0B11F",
"a c #C5A722",
"s c #CEAE24",
"d c #DBAD20",
"f c #D6B626",
"g c #E3B521",
"h c #E5B923",
"j c #E8BF26",
"k c #E0BD28",
"l c #E9C127",
"z c #E6C228",
"x c #EBC629",
"c c #ECC92A",
"v c #F3CD2B",
"b c #F6D12C",
"n c #FAD42D",
"m c #FFD82E",
"M c None",
/* pixels */
"MMMMMMMMMMMMMMMMMMMMMMMMMMMMMMMMMMMMMMMMMMMMMMMMMMMMMMMMMMMMMMMM",
"MMMMMMMMMMMMMMMMMMMMMMMMMMMMMMMMMMMMMMMMMMMMMMMMMMMMMMMMMMMMMMMM",
"MMMMMMMMMMMMMMMMMMMMMMMMMMMMMMMMMMMMMMMMMMMMMMMMMMMMMMMMMMMMMMMM",
"MMMMMMMMMMMMMMMMMMMMMMMMMMMMMMMMMMMMMMMMMMMMMMMMMMMMMMMMMMMMMMMM",
"MMMMMMMMMMMMMMMMMMMMMMMMMMMMMMMMMMMMMMMMMMMMMMMMMMMMMMMMMMMMMMMM",
"MMMMMMMMMMMMMMMMMMMMMMMMMMMMMMMMMMMMMMMMMMMMMMMMMMMMMMMMMMMMMMMM",
"MMMMMMMMMMMMMMMMMMMMMMMMMMMMMMMMMMMMMMMMMMMMMMMMMMMMMMMMMMMMMMMM",
"MMMMMMMMMMMMMMMMMMMMMMMMMMMMMMMMMMMMMMMMMMMMMMMMMMMMMMMMMMMMMMMM",
"MMMMMMMMMMMMMMMMMMMMMMMMMcxxxlljht44777MMMMMMMMMMMMMMMMMMMMMMMMM",
"MMMMMMMMMMMMMMMMMMMMMMxccvnnbvnbvvvhu97777MMMMMMMMMMMMMMMMMMMMMM",
"MMMMMMMMMMMMMMMMMMMMcvvvccccccccxcxxch077977MMMMMMMMMMMMMMMMMMMM",
"MMMMMMMMMMMMMMMMMMcvccccxxxlxzlxccvxccly847977MMMMMMMMMMMMMMMMMM",
"MMMMMMMMMMMMMMMMMxnccccljhhhphhhjjlxvccch867794MMMMMMMMMMMMMMMMM",
"MMMMMMMMMMMMMMMMcvcccjhghhhhhhhhhggjjccccj868796MMMMMMMMMMMMMMMM",
"MMMMMMMMMMMMMMMcvcclhhhhhghhhhhhhhhghjxcxcj836696MMMMMMMMMMMMMMM",
"MMMMMMMMMMMMMMcvcclhhhhhhhhhhhhhhhhhhhhlcxch768397MMMMMMMMMMMMMM",
"MMMMMMMMMMMMMcbccjhhhhhhhhhhhhhhhhhhhhhhxxccy338793MMMMMMMMMMMMM",
"MMMMMMMMMMMMcvcxjhhhhhhhhhhhhhhhhhjhhhhhhxccxw36777MMMMMMMMMMMMM",
"MMMMMMMMMMMMcvxxhhhhhhhhhhhhhhhhhy0phhhhhjcxch767794MMMMMMMMMMMM",
"MMMMMMMMMMMcncxhhhhhhhhhhhphhhhph32thhhhhhjccct37769MMMMMMMMMMMM",
"MMMMMMMMMMMccchhhhhhhhhhhhhhhhhhy33thhhhhhhlcch737784MMMMMMMMMMM",
"MMMMMMMMMMcmcchhhhhhghhhhhhhphhht38yjhhhhhhhcxc03677rMMMMMMMMMMM",
"MMMMMMMMMMcccjhhghhhghhhhhhhhhhh838hhhhhhhhhxccy477696MMMMMMMMMM",
"MMMMMMMMMMncxhhhhhhhhhhhhhhhhhhh730hdhhhhhhhlccl777774MMMMMMMMMM",
"MMMMMMMMMcbczhhhhhhhhhhhghhhhhhy76tjhhlhhhhhhxcc033779MMMMMMMMMM",
"MMMMMMMMMcvclhhhhhhhhhhghhhhhhht38yldyphhhhhhxcct37779MMMMMMMMMM",
"MMMMMMMMMccchhhhhhhhit00tphhjjj038iy820phhhhhlccg377797MMMMMMMMM",
"MMMMMMMMMvcxhhhhhhgt732338ihttp0380633thhhghhjxcg374487MMMMMMMMM",
"MMMMMMMMMbczhhhhhgt43700430t448473333thhhhhhhjccj377745MMMMMMMMM",
"MMMMMMMMMbcxhhhhhp478yhht34te4347770phhhhhhhhjccl364777MMMMMMMMM",
"MMMMMMMMMbcxjhhhh037yhhhhyyhhi0430phhhhhhhhhhhxcl377777MMMMMMMMM",
"MMMMMMMMMbcxhhhhg330hhhhhhhhhhi43yhhhhhhghhhhjccl377483MMMMMMMMM",
"MMMMMMMMMvclhhhht37yjghhhhhhhjt73yhhhhhhhhhhglccj333783MMMMMMMMM",
"MMMMMMMMMccchhhht68ijhhhhhhhhhy73yhhhhhhhhhhhlccg377754MMMMMMMMM",
"MMMMMMMMMcvcjhhht27ighhghghhgjy43yhhghhhhhhhhxccy376797MMMMMMMMM",
"MMMMMMMMMcvclhhht67yjhhhhhhghhy78yhhhhhhhghghxcxe3777rMMMMMMMMMM",
"MMMMMMMMMMmcxhhhi73ehhhhhhhhhhy74yhghhhhhhhhjcxx837776MMMMMMMMMM",
"MMMMMMMMMMcccjhhg877yhhhjhghhjt74yjhhhhhhhhhzcch777784MMMMMMMMMM",
"MMMMMMMMMMcbclhhhy778tiit08thhp730tethhhhhhjxcct3764rMMMMMMMMMMM",
"MMMMMMMMMMMncchhhgt34478442eggj033337phhghhlxcl837774MMMMMMMMMMM",
"MMMMMMMMMMMcvcxhhghy877778eghggh0808thhhhhhxxcy7773r4MMMMMMMMMMM",
"MMMMMMMMMMMMvccjhhhhhgyyighhhhhhhghghhhhhhxxcl867487MMMMMMMMMMMM",
"MMMMMMMMMMMMcncxhhghhhhhjgghhhhhhhhhhhhhhlcxct377693MMMMMMMMMMMM",
"MMMMMMMMMMMMMcvccjhhhhhhhhhhhhhhhhghhhhhjcccg477797MMMMMMMMMMMMM",
"MMMMMMMMMMMMMMcccchhhhhhhhhhhhhhhhhhhhhjxxcj837677MMMMMMMMMMMMMM",
"MMMMMMMMMMMMMMcvcccjhhhhhhhhhhhhhhhhhhlcccl037677MMMMMMMMMMMMMMM",
"MMMMMMMMMMMMMMMsvcccjjhghhhhhhhhhghhjxcccxt37776$MMMMMMMMMMMMMMM",
"MMMMMMMMMMMMMMMM<vcccclhhghghhghhhjlxcxclw36783OMMMMMMMMMMMMMMMM",
"MMMMMMMMMMMMMMMMM;zvccccxlljhjjlxxxcccch837691MMMMMMMMMMMMMMMMMM",
"MMMMMMMMMMMMMMMMMMMaxbvcxccxxxxxxcccclt47976@MMMMMMMMMMMMMMMMMMM",
"MMMMMMMMMMMMMMMMMMMM+ffxmbcccvccccxji95961$MMMMMMMMMMMMMMMMMMMMM",
"MMMMMMMMMMMMMMMMMMMMMMM<sfkzxvvxhdw311*$@MMMMMMMMMMMMMMMMMMMMMMM",
"MMMMMMMMMMMMMMMMMMMMMMMMMMM&:->=O .XoMMMMMMMMMMMMMMMMMMMMMMMMMMM",
"MMMMMMMMMMMMMMMMMMMMMMMMMMMMMMMMMMMMMMMMMMMMMMMMMMMMMMMMMMMMMMMM",
"MMMMMMMMMMMMMMMMMMMMMMMMMMMMMMMMMMMMMMMMMMMMMMMMMMMMMMMMMMMMMMMM",
"MMMMMMMMMMMMMMMMMMMMMMMMMMMMMMMMMMMMMMMMMMMMMMMMMMMMMMMMMMMMMMMM",
"MMMMMMMMMMMMMMMMMMMMMMMMMMMMMMMMMMMMMMMMMMMMMMMMMMMMMMMMMMMMMMMM",
"MMMMMMMMMMMMMMMMMMMMMMMMMMMMMMMMMMMMMMMMMMMMMMMMMMMMMMMMMMMMMMMM",
"MMMMMMMMMMMMMMMMMMMMMMMMMMMMMMMMMMMMMMMMMMMMMMMMMMMMMMMMMMMMMMMM",
"MMMMMMMMMMMMMMMMMMMMMMMMMMMMMMMMMMMMMMMMMMMMMMMMMMMMMMMMMMMMMMMM",
"MMMMMMMMMMMMMMMMMMMMMMMMMMMMMMMMMMMMMMMMMMMMMMMMMMMMMMMMMMMMMMMM",
"MMMMMMMMMMMMMMMMMMMMMMMMMMMMMMMMMMMMMMMMMMMMMMMMMMMMMMMMMMMMMMMM",
"MMMMMMMMMMMMMMMMMMMMMMMMMMMMMMMMMMMMMMMMMMMMMMMMMMMMMMMMMMMMMMMM",
"MMMMMMMMMMMMMMMMMMMMMMMMMMMMMMMMMMMMMMMMMMMMMMMMMMMMMMMMMMMMMMMM"
};
